<svg width="141" height="183" viewBox="0 0 141 183" fill="none" xmlns="http://www.w3.org/2000/svg">
<path d="M116.604 75V25L73.3018 0L30 25L51.6514 37.5L73.3018 25L94.9521 37.5V62.5L73.3018 75V100L116.604 75Z" fill="black"/>
<path d="M46 115L89.3018 140V115L67.6514 102.5V77.5L46 65V115Z" fill="#FB8500"/>
<path d="M68.3018 53L25 28V53L46.6504 65.5V90.5L68.3018 103V53Z" fill="#FB8500"/>
<path d="M6.91398 166H4.73398C3.68065 166 2.86732 165.72 2.29398 165.16C1.72065 164.6 1.43398 163.793 1.43398 162.74V156.4C1.43398 155.347 1.72065 154.54 2.29398 153.98C2.86732 153.42 3.68065 153.14 4.73398 153.14H6.91398C7.95398 153.14 8.76065 153.427 9.33398 154C9.92065 154.56 10.214 155.36 10.214 156.4V157.34C10.214 157.633 10.0673 157.78 9.77399 157.78H8.09398C7.81398 157.78 7.67398 157.633 7.67398 157.34V156.52C7.67398 156.093 7.58065 155.793 7.39398 155.62C7.22065 155.433 6.92065 155.34 6.49398 155.34H5.13398C4.72065 155.34 4.42065 155.433 4.23398 155.62C4.06065 155.793 3.97398 156.093 3.97398 156.52V162.62C3.97398 163.047 4.06065 163.353 4.23398 163.54C4.42065 163.713 4.72065 163.8 5.13398 163.8H6.49398C6.92065 163.8 7.22065 163.713 7.39398 163.54C7.58065 163.353 7.67398 163.047 7.67398 162.62V161.8C7.67398 161.507 7.81398 161.36 8.09398 161.36H9.77399C10.0673 161.36 10.214 161.507 10.214 161.8V162.74C10.214 163.78 9.92065 164.587 9.33398 165.16C8.76065 165.72 7.95398 166 6.91398 166ZM14.5157 166H12.8157C12.5357 166 12.3957 165.86 12.3957 165.58V153.56C12.3957 153.28 12.5357 153.14 12.8157 153.14H17.5757C18.6157 153.14 19.429 153.427 20.0157 154C20.6024 154.573 20.8957 155.38 20.8957 156.42V157.98C20.8957 159.487 20.3024 160.487 19.1157 160.98V161.06L21.2557 165.52C21.3757 165.84 21.2624 166 20.9157 166H19.2957C19.0557 166 18.8824 165.973 18.7757 165.92C18.669 165.867 18.5824 165.753 18.5157 165.58L16.5157 161.26H15.1757C15.0157 161.26 14.9357 161.333 14.9357 161.48V165.58C14.9357 165.86 14.7957 166 14.5157 166ZM15.1557 159.22H17.1157C17.5424 159.22 17.8557 159.133 18.0557 158.96C18.2557 158.773 18.3557 158.48 18.3557 158.08V156.52C18.3557 156.107 18.2557 155.807 18.0557 155.62C17.8557 155.433 17.5424 155.34 17.1157 155.34H15.1557C15.009 155.34 14.9357 155.413 14.9357 155.56V159C14.9357 159.147 15.009 159.22 15.1557 159.22ZM30.2932 166H23.7532C23.4732 166 23.3332 165.86 23.3332 165.58V153.56C23.3332 153.28 23.4732 153.14 23.7532 153.14H30.2932C30.5599 153.14 30.6932 153.28 30.6932 153.56V154.92C30.6932 155.2 30.5599 155.34 30.2932 155.34H26.1132C25.9532 155.34 25.8732 155.413 25.8732 155.56V158.16C25.8732 158.307 25.9532 158.38 26.1132 158.38H29.5332C29.8132 158.38 29.9532 158.52 29.9532 158.8V160.16C29.9532 160.44 29.8132 160.58 29.5332 160.58H26.1132C25.9532 160.58 25.8732 160.653 25.8732 160.8V163.58C25.8732 163.727 25.9532 163.8 26.1132 163.8H30.2932C30.5599 163.8 30.6932 163.94 30.6932 164.22V165.58C30.6932 165.86 30.5599 166 30.2932 166ZM34.2435 166H32.3235C32.0835 166 32.0035 165.86 32.0835 165.58L35.2435 153.56C35.3368 153.28 35.5368 153.14 35.8435 153.14H38.5035C38.8368 153.14 39.0368 153.28 39.1035 153.56L42.2635 165.58C42.3435 165.86 42.2635 166 42.0235 166H40.1035C39.9568 166 39.8568 165.973 39.8035 165.92C39.7502 165.853 39.7102 165.74 39.6835 165.58L39.1235 163.38H35.2235L34.6635 165.58C34.6368 165.74 34.5902 165.853 34.5235 165.92C34.4702 165.973 34.3768 166 34.2435 166ZM37.1435 155.56L35.7035 161.34H38.6635L37.2235 155.56H37.1435ZM48.0163 166H46.3363C46.043 166 45.8963 165.86 45.8963 165.58V155.56C45.8963 155.413 45.823 155.34 45.6763 155.34H43.3963C43.1163 155.34 42.9763 155.2 42.9763 154.92V153.56C42.9763 153.28 43.1163 153.14 43.3963 153.14H50.9563C51.2363 153.14 51.3763 153.28 51.3763 153.56V154.92C51.3763 155.2 51.2363 155.34 50.9563 155.34H48.6763C48.5163 155.34 48.4363 155.413 48.4363 155.56V165.58C48.4363 165.86 48.2963 166 48.0163 166ZM55.5435 153.56V165.58C55.5435 165.86 55.4035 166 55.1235 166H53.4235C53.1435 166 53.0035 165.86 53.0035 165.58V153.56C53.0035 153.28 53.1435 153.14 53.4235 153.14H55.1235C55.4035 153.14 55.5435 153.28 55.5435 153.56ZM63.4755 166H60.8555C60.5755 166 60.4089 165.86 60.3555 165.58L57.2555 153.6C57.1622 153.293 57.2955 153.14 57.6555 153.14H59.5355C59.8022 153.14 59.9622 153.28 60.0155 153.56L62.1155 163.4H62.1955L64.2955 153.56C64.3489 153.28 64.5089 153.14 64.7755 153.14H66.6555C66.9889 153.14 67.1222 153.293 67.0555 153.6L63.9555 165.58C63.8889 165.86 63.7289 166 63.4755 166ZM75.6252 166H69.0852C68.8052 166 68.6652 165.86 68.6652 165.58V153.56C68.6652 153.28 68.8052 153.14 69.0852 153.14H75.6252C75.8919 153.14 76.0252 153.28 76.0252 153.56V154.92C76.0252 155.2 75.8919 155.34 75.6252 155.34H71.4452C71.2852 155.34 71.2052 155.413 71.2052 155.56V158.16C71.2052 158.307 71.2852 158.38 71.4452 158.38H74.8652C75.1452 158.38 75.2852 158.52 75.2852 158.8V160.16C75.2852 160.44 75.1452 160.58 74.8652 160.58H71.4452C71.2852 160.58 71.2052 160.653 71.2052 160.8V163.58C71.2052 163.727 71.2852 163.8 71.4452 163.8H75.6252C75.8919 163.8 76.0252 163.94 76.0252 164.22V165.58C76.0252 165.86 75.8919 166 75.6252 166Z" fill="black"/>
<path d="M85.3901 163.8H87.5701C87.9967 163.8 88.2967 163.713 88.4701 163.54C88.6567 163.353 88.7501 163.047 88.7501 162.62V156.52C88.7501 156.093 88.6567 155.793 88.4701 155.62C88.2967 155.433 87.9967 155.34 87.5701 155.34H85.3901C85.2434 155.34 85.1701 155.413 85.1701 155.56V163.58C85.1701 163.727 85.2434 163.8 85.3901 163.8ZM82.6301 165.58V153.56C82.6301 153.28 82.7701 153.14 83.0501 153.14H87.9901C89.0301 153.14 89.8367 153.427 90.4101 154C90.9967 154.56 91.2901 155.36 91.2901 156.4V162.74C91.2901 163.78 90.9967 164.587 90.4101 165.16C89.8367 165.72 89.0301 166 87.9901 166H83.0501C82.7701 166 82.6301 165.86 82.6301 165.58ZM100.645 166H94.1048C93.8248 166 93.6848 165.86 93.6848 165.58V153.56C93.6848 153.28 93.8248 153.14 94.1048 153.14H100.645C100.911 153.14 101.045 153.28 101.045 153.56V154.92C101.045 155.2 100.911 155.34 100.645 155.34H96.4648C96.3048 155.34 96.2248 155.413 96.2248 155.56V158.16C96.2248 158.307 96.3048 158.38 96.4648 158.38H99.8848C100.165 158.38 100.305 158.52 100.305 158.8V160.16C100.305 160.44 100.165 160.58 99.8848 160.58H96.4648C96.3048 160.58 96.2248 160.653 96.2248 160.8V163.58C96.2248 163.727 96.3048 163.8 96.4648 163.8H100.645C100.911 163.8 101.045 163.94 101.045 164.22V165.58C101.045 165.86 100.911 166 100.645 166ZM102.935 162.72V162.32C102.935 162.04 103.075 161.9 103.355 161.9H105.055C105.335 161.9 105.475 162.04 105.475 162.32V162.48C105.475 162.987 105.575 163.333 105.775 163.52C105.975 163.707 106.342 163.8 106.875 163.8H107.815C108.335 163.8 108.695 163.7 108.895 163.5C109.108 163.3 109.215 162.927 109.215 162.38V162.14C109.215 161.753 109.055 161.46 108.735 161.26C108.428 161.047 108.042 160.92 107.575 160.88C107.108 160.84 106.602 160.767 106.055 160.66C105.522 160.54 105.022 160.393 104.555 160.22C104.088 160.033 103.695 159.68 103.375 159.16C103.068 158.627 102.915 157.947 102.915 157.12V156.42C102.915 155.38 103.208 154.573 103.795 154C104.382 153.427 105.195 153.14 106.235 153.14H108.235C109.288 153.14 110.108 153.427 110.695 154C111.282 154.573 111.575 155.38 111.575 156.42V156.8C111.575 157.08 111.435 157.22 111.155 157.22H109.455C109.175 157.22 109.035 157.08 109.035 156.8V156.68C109.035 156.16 108.935 155.807 108.735 155.62C108.535 155.433 108.168 155.34 107.635 155.34H106.855C106.308 155.34 105.935 155.447 105.735 155.66C105.548 155.86 105.455 156.26 105.455 156.86V157.24C105.455 157.867 106.002 158.227 107.095 158.32C108.228 158.413 109.235 158.64 110.115 159C110.582 159.2 110.968 159.56 111.275 160.08C111.595 160.587 111.755 161.24 111.755 162.04V162.72C111.755 163.76 111.462 164.567 110.875 165.14C110.288 165.713 109.475 166 108.435 166H106.255C105.215 166 104.402 165.713 103.815 165.14C103.228 164.567 102.935 163.76 102.935 162.72ZM116.676 153.56V165.58C116.676 165.86 116.536 166 116.256 166H114.556C114.276 166 114.136 165.86 114.136 165.58V153.56C114.136 153.28 114.276 153.14 114.556 153.14H116.256C116.536 153.14 116.676 153.28 116.676 153.56ZM124.588 166H122.468C121.415 166 120.602 165.72 120.028 165.16C119.455 164.6 119.168 163.793 119.168 162.74V156.4C119.168 155.347 119.455 154.54 120.028 153.98C120.602 153.42 121.415 153.14 122.468 153.14H124.588C125.628 153.14 126.435 153.427 127.008 154C127.582 154.56 127.868 155.36 127.868 156.4V157C127.868 157.293 127.728 157.44 127.448 157.44H125.748C125.468 157.44 125.328 157.293 125.328 157V156.52C125.328 156.093 125.242 155.793 125.068 155.62C124.895 155.433 124.595 155.34 124.168 155.34H122.868C122.455 155.34 122.155 155.433 121.968 155.62C121.795 155.793 121.708 156.093 121.708 156.52V162.62C121.708 163.047 121.795 163.353 121.968 163.54C122.155 163.713 122.455 163.8 122.868 163.8H124.168C124.595 163.8 124.895 163.713 125.068 163.54C125.242 163.353 125.328 163.047 125.328 162.62V161.36C125.328 161.213 125.255 161.14 125.108 161.14H123.908C123.628 161.14 123.488 161 123.488 160.72V159.36C123.488 159.08 123.628 158.94 123.908 158.94H127.408C127.715 158.94 127.868 159.093 127.868 159.4V162.74C127.868 163.78 127.582 164.587 127.008 165.16C126.435 165.72 125.628 166 124.588 166ZM132.347 166H130.687C130.407 166 130.267 165.86 130.267 165.58V153.56C130.267 153.28 130.407 153.14 130.687 153.14H132.187C132.467 153.14 132.653 153.233 132.747 153.42L136.787 161H136.867V153.56C136.867 153.28 137.007 153.14 137.287 153.14H138.947C139.227 153.14 139.367 153.28 139.367 153.56V165.58C139.367 165.86 139.227 166 138.947 166H137.487C137.193 166 136.98 165.867 136.847 165.6L132.847 158.16H132.767V165.58C132.767 165.86 132.627 166 132.347 166Z" fill="#FB8500"/>
<path d="M17.6498 178.688V178.528C17.6498 178.416 17.7058 178.36 17.8178 178.36H18.4978C18.6098 178.36 18.6658 178.416 18.6658 178.528V178.592C18.6658 178.795 18.7058 178.933 18.7858 179.008C18.8658 179.083 19.0125 179.12 19.2258 179.12H19.6018C19.8098 179.12 19.9538 179.08 20.0338 179C20.1191 178.92 20.1618 178.771 20.1618 178.552V178.456C20.1618 178.301 20.0978 178.184 19.9698 178.104C19.8471 178.019 19.6925 177.968 19.5058 177.952C19.3191 177.936 19.1165 177.907 18.8978 177.864C18.6845 177.816 18.4845 177.757 18.2978 177.688C18.1111 177.613 17.9538 177.472 17.8258 177.264C17.7031 177.051 17.6418 176.779 17.6418 176.448V176.168C17.6418 175.752 17.7591 175.429 17.9938 175.2C18.2285 174.971 18.5538 174.856 18.9698 174.856H19.7698C20.1911 174.856 20.5191 174.971 20.7538 175.2C20.9885 175.429 21.1058 175.752 21.1058 176.168V176.32C21.1058 176.432 21.0498 176.488 20.9378 176.488H20.2578C20.1458 176.488 20.0898 176.432 20.0898 176.32V176.272C20.0898 176.064 20.0498 175.923 19.9698 175.848C19.8898 175.773 19.7431 175.736 19.5298 175.736H19.2178C18.9991 175.736 18.8498 175.779 18.7698 175.864C18.6951 175.944 18.6578 176.104 18.6578 176.344V176.496C18.6578 176.747 18.8765 176.891 19.3138 176.928C19.7671 176.965 20.1698 177.056 20.5218 177.2C20.7085 177.28 20.8631 177.424 20.9858 177.632C21.1138 177.835 21.1778 178.096 21.1778 178.416V178.688C21.1778 179.104 21.0605 179.427 20.8258 179.656C20.5911 179.885 20.2658 180 19.8498 180H18.9778C18.5618 180 18.2365 179.885 18.0018 179.656C17.7671 179.427 17.6498 179.104 17.6498 178.688ZM22.8583 180H22.1783C22.0663 180 22.0103 179.944 22.0103 179.832V174.544C22.0103 174.432 22.0663 174.376 22.1783 174.376H22.8583C22.9703 174.376 23.0263 174.432 23.0263 174.544V176.352H23.0583C23.1756 176.064 23.437 175.92 23.8423 175.92H24.0983C24.9356 175.92 25.3543 176.355 25.3543 177.224V179.832C25.3543 179.944 25.2956 180 25.1783 180H24.5063C24.3943 180 24.3383 179.944 24.3383 179.832V177.272C24.3383 177.101 24.301 176.981 24.2263 176.912C24.157 176.837 24.037 176.8 23.8663 176.8H23.5783C23.2103 176.8 23.0263 177.003 23.0263 177.408V179.832C23.0263 179.944 22.9703 180 22.8583 180ZM28.1498 180H27.4378C27.0165 180 26.6911 179.888 26.4618 179.664C26.2325 179.44 26.1178 179.117 26.1178 178.696V177.224C26.1178 176.803 26.2325 176.48 26.4618 176.256C26.6911 176.032 27.0165 175.92 27.4378 175.92H28.1498C28.5658 175.92 28.8885 176.035 29.1178 176.264C29.3525 176.488 29.4698 176.808 29.4698 177.224V178.696C29.4698 179.112 29.3525 179.435 29.1178 179.664C28.8885 179.888 28.5658 180 28.1498 180ZM27.5898 179.128H27.9978C28.1685 179.128 28.2885 179.093 28.3578 179.024C28.4325 178.955 28.4698 178.835 28.4698 178.664V177.256C28.4698 177.085 28.4325 176.965 28.3578 176.896C28.2885 176.827 28.1685 176.792 27.9978 176.792H27.5898C27.4191 176.792 27.2991 176.827 27.2298 176.896C27.1605 176.965 27.1258 177.085 27.1258 177.256V178.664C27.1258 178.835 27.1605 178.955 27.2298 179.024C27.2991 179.093 27.4191 179.128 27.5898 179.128ZM31.9001 180H30.9881C30.8868 180 30.8228 179.944 30.7961 179.832L29.9961 176.088C29.9748 175.976 30.0148 175.92 30.1161 175.92H30.8841C31.0015 175.92 31.0655 175.976 31.0761 176.088L31.4361 178.824H31.5001L32.0681 176.088C32.0841 175.976 32.1455 175.92 32.2521 175.92H32.9561C33.0681 175.92 33.1348 175.976 33.1561 176.088L33.7081 178.824H33.7721L34.1401 176.088C34.1561 175.976 34.2201 175.92 34.3321 175.92H35.1001C35.2068 175.92 35.2468 175.976 35.2201 176.088L34.4201 179.832C34.3988 179.944 34.3348 180 34.2281 180H33.3161C33.2095 180 33.1455 179.944 33.1241 179.832L32.6361 177.128H32.5721L32.0921 179.832C32.0761 179.944 32.0121 180 31.9001 180ZM38.2603 181.352H37.7483C37.6416 181.352 37.5883 181.293 37.5883 181.176V180.64C37.5883 180.523 37.6416 180.464 37.7483 180.464H37.9163C38.2523 180.464 38.4789 180.416 38.5963 180.32C38.7189 180.229 38.8123 180.051 38.8763 179.784H38.4523C38.3509 179.784 38.2843 179.728 38.2523 179.616L37.3163 176.088C37.2843 175.976 37.3243 175.92 37.4363 175.92H38.1483C38.2549 175.92 38.3216 175.976 38.3483 176.088L39.0363 179.04H39.0683L39.7483 176.088C39.7696 175.976 39.8363 175.92 39.9483 175.92H40.6203C40.7536 175.92 40.8069 175.979 40.7803 176.096L39.8043 180C39.6869 180.443 39.5056 180.779 39.2603 181.008C39.0149 181.237 38.6816 181.352 38.2603 181.352ZM43.3139 180H42.6019C42.1805 180 41.8552 179.888 41.6259 179.664C41.3965 179.44 41.2819 179.117 41.2819 178.696V177.224C41.2819 176.803 41.3965 176.48 41.6259 176.256C41.8552 176.032 42.1805 175.92 42.6019 175.92H43.3139C43.7299 175.92 44.0525 176.035 44.2819 176.264C44.5165 176.488 44.6339 176.808 44.6339 177.224V178.696C44.6339 179.112 44.5165 179.435 44.2819 179.664C44.0525 179.888 43.7299 180 43.3139 180ZM42.7539 179.128H43.1619C43.3325 179.128 43.4525 179.093 43.5219 179.024C43.5965 178.955 43.6339 178.835 43.6339 178.664V177.256C43.6339 177.085 43.5965 176.965 43.5219 176.896C43.4525 176.827 43.3325 176.792 43.1619 176.792H42.7539C42.5832 176.792 42.4632 176.827 42.3939 176.896C42.3245 176.965 42.2899 177.085 42.2899 177.256V178.664C42.2899 178.835 42.3245 178.955 42.3939 179.024C42.4632 179.093 42.5832 179.128 42.7539 179.128ZM46.9042 180H46.6402C46.2295 180 45.9175 179.888 45.7042 179.664C45.4962 179.44 45.3922 179.117 45.3922 178.696V176.088C45.3922 175.976 45.4482 175.92 45.5602 175.92H46.2402C46.3522 175.92 46.4082 175.976 46.4082 176.088V178.648C46.4082 178.819 46.4429 178.941 46.5122 179.016C46.5869 179.085 46.7069 179.12 46.8722 179.12H47.1682C47.5362 179.12 47.7202 178.917 47.7202 178.512V176.088C47.7202 175.976 47.7762 175.92 47.8882 175.92H48.5602C48.6775 175.92 48.7362 175.976 48.7362 176.088V179.832C48.7362 179.944 48.6775 180 48.5602 180H47.8882C47.7762 180 47.7202 179.944 47.7202 179.832V179.568H47.6882C47.6295 179.712 47.5255 179.821 47.3762 179.896C47.2269 179.965 47.0695 180 46.9042 180ZM50.4677 180H49.7877C49.6757 180 49.6197 179.944 49.6197 179.832V176.088C49.6197 175.976 49.6757 175.92 49.7877 175.92H50.4677C50.5797 175.92 50.6357 175.976 50.6357 176.088V176.36H50.6677C50.7264 176.216 50.8304 176.107 50.9797 176.032C51.129 175.957 51.2864 175.92 51.4517 175.92H51.7397C51.8464 175.92 51.8997 175.976 51.8997 176.088V176.64C51.8997 176.704 51.8864 176.749 51.8597 176.776C51.8384 176.797 51.7984 176.805 51.7397 176.8H51.1877C50.8197 176.8 50.6357 177.008 50.6357 177.424V179.832C50.6357 179.944 50.5797 180 50.4677 180ZM55.7986 180H54.8866C54.7852 180 54.7212 179.944 54.6946 179.832L53.8946 176.088C53.8732 175.976 53.9132 175.92 54.0146 175.92H54.7826C54.8999 175.92 54.9639 175.976 54.9746 176.088L55.3346 178.824H55.3986L55.9666 176.088C55.9826 175.976 56.0439 175.92 56.1506 175.92H56.8546C56.9666 175.92 57.0332 175.976 57.0546 176.088L57.6066 178.824H57.6706L58.0386 176.088C58.0546 175.976 58.1186 175.92 58.2306 175.92H58.9986C59.1052 175.92 59.1452 175.976 59.1186 176.088L58.3186 179.832C58.2972 179.944 58.2332 180 58.1266 180H57.2146C57.1079 180 57.0439 179.944 57.0226 179.832L56.5346 177.128H56.4706L55.9906 179.832C55.9746 179.944 55.9106 180 55.7986 180ZM61.6889 180H60.9769C60.5555 180 60.2302 179.888 60.0009 179.664C59.7715 179.44 59.6569 179.117 59.6569 178.696V177.224C59.6569 176.803 59.7715 176.48 60.0009 176.256C60.2302 176.032 60.5555 175.92 60.9769 175.92H61.6889C62.1049 175.92 62.4275 176.035 62.6569 176.264C62.8915 176.488 63.0089 176.808 63.0089 177.224V178.696C63.0089 179.112 62.8915 179.435 62.6569 179.664C62.4275 179.888 62.1049 180 61.6889 180ZM61.1289 179.128H61.5369C61.7075 179.128 61.8275 179.093 61.8969 179.024C61.9715 178.955 62.0089 178.835 62.0089 178.664V177.256C62.0089 177.085 61.9715 176.965 61.8969 176.896C61.8275 176.827 61.7075 176.792 61.5369 176.792H61.1289C60.9582 176.792 60.8382 176.827 60.7689 176.896C60.6995 176.965 60.6649 177.085 60.6649 177.256V178.664C60.6649 178.835 60.6995 178.955 60.7689 179.024C60.8382 179.093 60.9582 179.128 61.1289 179.128ZM64.6552 180H63.9752C63.8632 180 63.8072 179.944 63.8072 179.832V176.088C63.8072 175.976 63.8632 175.92 63.9752 175.92H64.6552C64.7672 175.92 64.8232 175.976 64.8232 176.088V176.36H64.8552C64.9139 176.216 65.0179 176.107 65.1672 176.032C65.3165 175.957 65.4739 175.92 65.6392 175.92H65.9272C66.0339 175.92 66.0872 175.976 66.0872 176.088V176.64C66.0872 176.704 66.0739 176.749 66.0472 176.776C66.0259 176.797 65.9859 176.805 65.9272 176.8H65.3752C65.0072 176.8 64.8232 177.008 64.8232 177.424V179.832C64.8232 179.944 64.7672 180 64.6552 180ZM68.9323 175.92H69.7083C69.7723 175.92 69.8149 175.939 69.8363 175.976C69.8576 176.013 69.8496 176.061 69.8123 176.12L68.7483 177.872V177.904L69.8603 179.8C69.8923 179.853 69.8949 179.901 69.8683 179.944C69.8416 179.981 69.7936 180 69.7243 180H69.0363C68.9456 180 68.8789 179.989 68.8363 179.968C68.7989 179.947 68.7589 179.901 68.7163 179.832L67.7003 178.048C67.6523 177.963 67.6523 177.875 67.7003 177.784L68.6603 176.08C68.7189 175.973 68.8096 175.92 68.9323 175.92ZM67.4443 180H66.7643C66.6523 180 66.5963 179.944 66.5963 179.832V174.544C66.5963 174.432 66.6523 174.376 66.7643 174.376H67.4443C67.5563 174.376 67.6123 174.432 67.6123 174.544V179.832C67.6123 179.944 67.5563 180 67.4443 180ZM71.2577 178.848V179.832C71.2577 179.944 71.207 180 71.1057 180H70.3937C70.287 180 70.2337 179.944 70.2337 179.832V178.856C70.2337 178.749 70.287 178.696 70.3937 178.696H71.1057C71.207 178.696 71.2577 178.747 71.2577 178.848ZM73.7123 178.688V178.528C73.7123 178.416 73.7683 178.36 73.8803 178.36H74.5603C74.6723 178.36 74.7283 178.416 74.7283 178.528V178.592C74.7283 178.795 74.7683 178.933 74.8483 179.008C74.9283 179.083 75.075 179.12 75.2883 179.12H75.6643C75.8723 179.12 76.0163 179.08 76.0963 179C76.1816 178.92 76.2243 178.771 76.2243 178.552V178.456C76.2243 178.301 76.1603 178.184 76.0323 178.104C75.9096 178.019 75.755 177.968 75.5683 177.952C75.3816 177.936 75.179 177.907 74.9603 177.864C74.747 177.816 74.547 177.757 74.3603 177.688C74.1736 177.613 74.0163 177.472 73.8883 177.264C73.7656 177.051 73.7043 176.779 73.7043 176.448V176.168C73.7043 175.752 73.8216 175.429 74.0563 175.2C74.291 174.971 74.6163 174.856 75.0323 174.856H75.8323C76.2536 174.856 76.5816 174.971 76.8163 175.2C77.051 175.429 77.1683 175.752 77.1683 176.168V176.32C77.1683 176.432 77.1123 176.488 77.0003 176.488H76.3203C76.2083 176.488 76.1523 176.432 76.1523 176.32V176.272C76.1523 176.064 76.1123 175.923 76.0323 175.848C75.9523 175.773 75.8056 175.736 75.5923 175.736H75.2803C75.0616 175.736 74.9123 175.779 74.8323 175.864C74.7576 175.944 74.7203 176.104 74.7203 176.344V176.496C74.7203 176.747 74.939 176.891 75.3763 176.928C75.8296 176.965 76.2323 177.056 76.5843 177.2C76.771 177.28 76.9256 177.424 77.0483 177.632C77.1763 177.835 77.2403 178.096 77.2403 178.416V178.688C77.2403 179.104 77.123 179.427 76.8883 179.656C76.6536 179.885 76.3283 180 75.9123 180H75.0403C74.6243 180 74.299 179.885 74.0643 179.656C73.8296 179.427 73.7123 179.104 73.7123 178.688ZM78.9208 180H78.2408C78.1288 180 78.0728 179.944 78.0728 179.832V174.544C78.0728 174.432 78.1288 174.376 78.2408 174.376H78.9208C79.0328 174.376 79.0888 174.432 79.0888 174.544V176.352H79.1208C79.2381 176.064 79.4995 175.92 79.9048 175.92H80.1608C80.9981 175.92 81.4168 176.355 81.4168 177.224V179.832C81.4168 179.944 81.3581 180 81.2408 180H80.5688C80.4568 180 80.4008 179.944 80.4008 179.832V177.272C80.4008 177.101 80.3635 176.981 80.2888 176.912C80.2195 176.837 80.0995 176.8 79.9288 176.8H79.6408C79.2728 176.8 79.0888 177.003 79.0888 177.408V179.832C79.0888 179.944 79.0328 180 78.9208 180ZM82.3003 175.232V174.536C82.3003 174.429 82.3536 174.376 82.4603 174.376H83.1563C83.263 174.376 83.3163 174.427 83.3163 174.528V175.232C83.3163 175.339 83.263 175.392 83.1563 175.392H82.4603C82.3536 175.392 82.3003 175.339 82.3003 175.232ZM82.3003 179.832V176.088C82.3003 175.976 82.3536 175.92 82.4603 175.92H83.1483C83.2603 175.92 83.3163 175.976 83.3163 176.088V179.832C83.3163 179.901 83.303 179.947 83.2763 179.968C83.255 179.989 83.215 180 83.1563 180H82.4683C82.3563 180 82.3003 179.944 82.3003 179.832ZM85.0849 180H84.4049C84.2929 180 84.2369 179.944 84.2369 179.832V176.088C84.2369 175.976 84.2929 175.92 84.4049 175.92H85.0849C85.1969 175.92 85.2529 175.976 85.2529 176.088V176.352H85.2849C85.4022 176.064 85.6635 175.92 86.0689 175.92H86.3249C87.1622 175.92 87.5809 176.355 87.5809 177.224V179.832C87.5809 179.944 87.5222 180 87.4049 180H86.7329C86.6209 180 86.5649 179.944 86.5649 179.832V177.272C86.5649 177.101 86.5275 176.981 86.4529 176.912C86.3835 176.837 86.2635 176.8 86.0929 176.8H85.8049C85.4369 176.8 85.2529 177.003 85.2529 177.408V179.832C85.2529 179.944 85.1969 180 85.0849 180ZM91.4324 180H89.6644C89.243 180 88.9177 179.888 88.6884 179.664C88.459 179.44 88.3444 179.117 88.3444 178.696V177.224C88.3444 176.803 88.459 176.48 88.6884 176.256C88.9177 176.032 89.243 175.92 89.6644 175.92H90.2964C90.7177 175.92 91.043 176.032 91.2724 176.256C91.5017 176.48 91.6164 176.803 91.6164 177.224V178.24C91.6164 178.352 91.5604 178.408 91.4484 178.408H89.4404C89.3764 178.408 89.3444 178.437 89.3444 178.496V178.672C89.3444 178.837 89.379 178.957 89.4484 179.032C89.523 179.101 89.6457 179.136 89.8164 179.136H91.4324C91.5444 179.136 91.6004 179.195 91.6004 179.312V179.84C91.6004 179.899 91.587 179.941 91.5604 179.968C91.539 179.989 91.4964 180 91.4324 180ZM89.4404 177.728H90.5284C90.587 177.728 90.6164 177.699 90.6164 177.64V177.256C90.6164 177.085 90.5817 176.965 90.5124 176.896C90.443 176.827 90.323 176.792 90.1524 176.792H89.8164C89.6457 176.792 89.5257 176.827 89.4564 176.896C89.387 176.965 89.3524 177.085 89.3524 177.256V177.64C89.3524 177.699 89.3817 177.728 89.4404 177.728ZM94.7993 181.352H94.2873C94.1806 181.352 94.1273 181.293 94.1273 181.176V180.64C94.1273 180.523 94.1806 180.464 94.2873 180.464H94.4553C94.7913 180.464 95.018 180.416 95.1353 180.32C95.258 180.229 95.3513 180.051 95.4153 179.784H94.9913C94.89 179.784 94.8233 179.728 94.7913 179.616L93.8553 176.088C93.8233 175.976 93.8633 175.92 93.9753 175.92H94.6873C94.794 175.92 94.8606 175.976 94.8873 176.088L95.5753 179.04H95.6073L96.2873 176.088C96.3086 175.976 96.3753 175.92 96.4873 175.92H97.1593C97.2926 175.92 97.346 175.979 97.3193 176.096L96.3433 180C96.226 180.443 96.0446 180.779 95.7993 181.008C95.554 181.237 95.2206 181.352 94.7993 181.352ZM99.8529 180H99.1409C98.7196 180 98.3943 179.888 98.1649 179.664C97.9356 179.44 97.8209 179.117 97.8209 178.696V177.224C97.8209 176.803 97.9356 176.48 98.1649 176.256C98.3943 176.032 98.7196 175.92 99.1409 175.92H99.8529C100.269 175.92 100.592 176.035 100.821 176.264C101.056 176.488 101.173 176.808 101.173 177.224V178.696C101.173 179.112 101.056 179.435 100.821 179.664C100.592 179.888 100.269 180 99.8529 180ZM99.2929 179.128H99.7009C99.8716 179.128 99.9916 179.093 100.061 179.024C100.136 178.955 100.173 178.835 100.173 178.664V177.256C100.173 177.085 100.136 176.965 100.061 176.896C99.9916 176.827 99.8716 176.792 99.7009 176.792H99.2929C99.1223 176.792 99.0023 176.827 98.9329 176.896C98.8636 176.965 98.8289 177.085 98.8289 177.256V178.664C98.8289 178.835 98.8636 178.955 98.9329 179.024C99.0023 179.093 99.1223 179.128 99.2929 179.128ZM103.443 180H103.179C102.769 180 102.457 179.888 102.243 179.664C102.035 179.44 101.931 179.117 101.931 178.696V176.088C101.931 175.976 101.987 175.92 102.099 175.92H102.779C102.891 175.92 102.947 175.976 102.947 176.088V178.648C102.947 178.819 102.982 178.941 103.051 179.016C103.126 179.085 103.246 179.12 103.411 179.12H103.707C104.075 179.12 104.259 178.917 104.259 178.512V176.088C104.259 175.976 104.315 175.92 104.427 175.92H105.099C105.217 175.92 105.275 175.976 105.275 176.088V179.832C105.275 179.944 105.217 180 105.099 180H104.427C104.315 180 104.259 179.944 104.259 179.832V179.568H104.227C104.169 179.712 104.065 179.821 103.915 179.896C103.766 179.965 103.609 180 103.443 180ZM107.007 180H106.327C106.215 180 106.159 179.944 106.159 179.832V176.088C106.159 175.976 106.215 175.92 106.327 175.92H107.007C107.119 175.92 107.175 175.976 107.175 176.088V176.36H107.207C107.265 176.216 107.369 176.107 107.519 176.032C107.668 175.957 107.825 175.92 107.991 175.92H108.279C108.385 175.92 108.439 175.976 108.439 176.088V176.64C108.439 176.704 108.425 176.749 108.399 176.776C108.377 176.797 108.337 176.805 108.279 176.8H107.727C107.359 176.8 107.175 177.008 107.175 177.424V179.832C107.175 179.944 107.119 180 107.007 180ZM112.338 180H111.426C111.324 180 111.26 179.944 111.234 179.832L110.434 176.088C110.412 175.976 110.452 175.92 110.554 175.92H111.322C111.439 175.92 111.503 175.976 111.514 176.088L111.874 178.824H111.938L112.506 176.088C112.522 175.976 112.583 175.92 112.69 175.92H113.394C113.506 175.92 113.572 175.976 113.594 176.088L114.146 178.824H114.21L114.578 176.088C114.594 175.976 114.658 175.92 114.77 175.92H115.538C115.644 175.92 115.684 175.976 115.658 176.088L114.858 179.832C114.836 179.944 114.772 180 114.666 180H113.754C113.647 180 113.583 179.944 113.562 179.832L113.074 177.128H113.01L112.53 179.832C112.514 179.944 112.45 180 112.338 180ZM117.708 180H117.516C117.095 180 116.769 179.888 116.54 179.664C116.311 179.44 116.196 179.117 116.196 178.696V177.224C116.196 176.803 116.311 176.48 116.54 176.256C116.769 176.032 117.095 175.92 117.516 175.92H119.364C119.481 175.92 119.54 175.976 119.54 176.088V179.832C119.54 179.944 119.481 180 119.364 180H118.692C118.58 180 118.524 179.944 118.524 179.832V179.568H118.492C118.433 179.712 118.329 179.821 118.18 179.896C118.031 179.965 117.873 180 117.708 180ZM118.524 178.512V176.888C118.524 176.829 118.492 176.8 118.428 176.8H117.676C117.505 176.8 117.385 176.837 117.316 176.912C117.247 176.981 117.212 177.101 117.212 177.272V178.648C117.212 178.819 117.247 178.941 117.316 179.016C117.385 179.085 117.505 179.12 117.676 179.12H117.972C118.34 179.12 118.524 178.917 118.524 178.512ZM121.081 181.352H120.569C120.462 181.352 120.409 181.293 120.409 181.176V180.64C120.409 180.523 120.462 180.464 120.569 180.464H120.737C121.073 180.464 121.299 180.416 121.417 180.32C121.539 180.229 121.633 180.051 121.697 179.784H121.273C121.171 179.784 121.105 179.728 121.073 179.616L120.137 176.088C120.105 175.976 120.145 175.92 120.257 175.92H120.969C121.075 175.92 121.142 175.976 121.169 176.088L121.857 179.04H121.889L122.569 176.088C122.59 175.976 122.657 175.92 122.769 175.92H123.441C123.574 175.92 123.627 175.979 123.601 176.096L122.625 180C122.507 180.443 122.326 180.779 122.081 181.008C121.835 181.237 121.502 181.352 121.081 181.352Z" fill="black"/>
</svg>
