<svg width="213" height="88" viewBox="0 0 213 88" fill="none" xmlns="http://www.w3.org/2000/svg">
<path d="M57 46.6685V15.5562L30.0556 0L3.11124 15.5562L16.5837 23.3343L30.0556 15.5562L43.5275 23.3343V38.8904L30.0556 46.6685V62.2247L57 46.6685Z" fill="white"/>
<path d="M13.0672 71.5584L40.0116 87.1146V71.5584L26.5397 63.7803V48.2241L13.0672 40.446V71.5584Z" fill="#FB8500"/>
<path d="M26.9444 32.9791L1.33514e-05 17.4229L1.33514e-05 32.9791L13.4719 40.7572L13.4719 56.3133L26.9444 64.0914L26.9444 32.9791Z" fill="#FB8500"/>
<path d="M69.2423 55H65.8423C65.2823 55 65.0023 54.72 65.0023 54.16V30.12C65.0023 29.56 65.2823 29.28 65.8423 29.28H75.6023C77.6823 29.28 79.2957 29.8533 80.4423 31C81.589 32.12 82.1623 33.72 82.1623 35.8V39.64C82.1623 41.72 81.589 43.3333 80.4423 44.48C79.2957 45.6 77.6823 46.16 75.6023 46.16H70.5623C70.2423 46.16 70.0823 46.3067 70.0823 46.6V54.16C70.0823 54.72 69.8023 55 69.2423 55ZM70.5223 41.72H74.7623C75.6157 41.72 76.2157 41.5467 76.5623 41.2C76.909 40.8267 77.0823 40.2267 77.0823 39.4V36.04C77.0823 35.1867 76.909 34.5867 76.5623 34.24C76.2157 33.8667 75.6157 33.68 74.7623 33.68H70.5223C70.229 33.68 70.0823 33.8267 70.0823 34.12V41.28C70.0823 41.5733 70.229 41.72 70.5223 41.72ZM93.2133 50.6H96.0533C96.9066 50.6 97.5066 50.4267 97.8533 50.08C98.2266 49.7067 98.4133 49.0933 98.4133 48.24V36.04C98.4133 35.1867 98.2266 34.5867 97.8533 34.24C97.5066 33.8667 96.9066 33.68 96.0533 33.68H93.2133C92.3599 33.68 91.7599 33.8667 91.4133 34.24C91.0666 34.5867 90.8933 35.1867 90.8933 36.04V48.24C90.8933 49.0933 91.0666 49.7067 91.4133 50.08C91.7599 50.4267 92.3599 50.6 93.2133 50.6ZM96.8933 55H92.4133C90.3066 55 88.6799 54.44 87.5333 53.32C86.3866 52.2 85.8133 50.5867 85.8133 48.48V35.8C85.8133 33.6933 86.3866 32.08 87.5333 30.96C88.6799 29.84 90.3066 29.28 92.4133 29.28H96.8933C98.9999 29.28 100.627 29.84 101.773 30.96C102.92 32.08 103.493 33.6933 103.493 35.8V48.48C103.493 50.5867 102.92 52.2 101.773 53.32C100.627 54.44 98.9999 55 96.8933 55ZM112.524 55H109.124C108.564 55 108.284 54.72 108.284 54.16V30.12C108.284 29.56 108.564 29.28 109.124 29.28H118.644C120.724 29.28 122.35 29.8533 123.524 31C124.697 32.1467 125.284 33.76 125.284 35.84V38.96C125.284 41.9733 124.097 43.9733 121.724 44.96V45.12L126.004 54.04C126.244 54.68 126.017 55 125.324 55H122.084C121.604 55 121.257 54.9467 121.044 54.84C120.83 54.7333 120.657 54.5067 120.524 54.16L116.524 45.52H113.844C113.524 45.52 113.364 45.6667 113.364 45.96V54.16C113.364 54.72 113.084 55 112.524 55ZM113.804 41.44H117.724C118.577 41.44 119.204 41.2667 119.604 40.92C120.004 40.5467 120.204 39.96 120.204 39.16V36.04C120.204 35.2133 120.004 34.6133 119.604 34.24C119.204 33.8667 118.577 33.68 117.724 33.68H113.804C113.51 33.68 113.364 33.8267 113.364 34.12V41C113.364 41.2933 113.51 41.44 113.804 41.44ZM138.119 55H134.759C134.172 55 133.879 54.72 133.879 54.16V34.12C133.879 33.8267 133.732 33.68 133.439 33.68H128.879C128.319 33.68 128.039 33.4 128.039 32.84V30.12C128.039 29.56 128.319 29.28 128.879 29.28H143.999C144.559 29.28 144.839 29.56 144.839 30.12V32.84C144.839 33.4 144.559 33.68 143.999 33.68H139.439C139.119 33.68 138.959 33.8267 138.959 34.12V54.16C138.959 54.72 138.679 55 138.119 55Z" fill="white"/>
<path d="M161.893 55H148.733C148.173 55 147.893 54.72 147.893 54.16V30.12C147.893 29.56 148.173 29.28 148.733 29.28H152.133C152.693 29.28 152.973 29.56 152.973 30.12V50.12C152.973 50.4133 153.133 50.56 153.453 50.56H161.893C162.426 50.56 162.693 50.8533 162.693 51.44V54.16C162.693 54.72 162.426 55 161.893 55ZM171.142 30.12V54.16C171.142 54.72 170.862 55 170.302 55H166.902C166.342 55 166.062 54.72 166.062 54.16V30.12C166.062 29.56 166.342 29.28 166.902 29.28H170.302C170.862 29.28 171.142 29.56 171.142 30.12ZM180.766 55H177.366C176.806 55 176.526 54.72 176.526 54.16V30.12C176.526 29.56 176.806 29.28 177.366 29.28H190.126C190.659 29.28 190.926 29.56 190.926 30.12V32.84C190.926 33.4 190.659 33.68 190.126 33.68H182.086C181.766 33.68 181.606 33.8267 181.606 34.12V40.32C181.606 40.64 181.766 40.8 182.086 40.8H188.926C189.486 40.8 189.766 41.08 189.766 41.64V44.32C189.766 44.9067 189.486 45.2 188.926 45.2H182.086C181.766 45.2 181.606 45.3467 181.606 45.64V54.16C181.606 54.72 181.326 55 180.766 55ZM203.974 55H200.574C200.014 55 199.734 54.72 199.734 54.16V45.6L192.414 30.16C192.307 29.92 192.307 29.72 192.414 29.56C192.547 29.3733 192.734 29.28 192.974 29.28H197.214C197.64 29.28 197.96 29.56 198.174 30.12L202.174 39.84H202.454L206.374 30.12C206.56 29.56 206.88 29.28 207.334 29.28H211.574C211.84 29.28 212.027 29.36 212.134 29.52C212.267 29.68 212.267 29.8933 212.134 30.16L204.814 45.6V54.16C204.814 54.72 204.534 55 203.974 55Z" fill="#FB8500"/>
</svg>
